<svg class="svg" version="1.1" xmlns="http://www.w3.org/2000/svg" xmlns:xlink="http://www.w3.org/1999/xlink" x="0px" y="0px"
	 width="300px" height="300.002px" viewBox="0 0 300 300.002" enable-background="new 0 0 300 300.002" xml:space="preserve">
<g>
	<path d="M150,0C67.163,0,0,67.163,0,150c0,66.284,42.975,122.497,102.584,142.327
		c7.499,1.374,10.236-3.258,10.236-7.214c0-3.571-0.138-15.399-0.211-27.923c-41.711,9.063-50.528-17.688-50.528-17.688
		c-6.83-17.321-16.653-21.936-16.653-21.936c-13.632-9.301,1.034-9.119,1.034-9.119c15.061,1.044,22.989,15.454,22.989,15.454
		c13.385,22.925,35.12,16.297,43.652,12.452c1.364-9.668,5.246-16.296,9.521-20.032c-33.298-3.79-68.326-16.663-68.326-74.14
		c0-16.388,5.851-29.754,15.427-40.256c-1.529-3.808-6.692-19.07,1.483-39.715c0,0,12.58-4.028,41.254,15.382
		c11.957-3.342,24.783-4.99,37.536-5.045c12.744,0.055,25.58,1.721,37.556,5.063c28.619-19.427,41.217-15.38,41.217-15.38
		c8.203,20.664,3.04,35.907,1.501,39.697c9.613,10.501,15.417,23.868,15.417,40.256c0,57.623-35.083,70.313-68.5,74.03
		c5.402,4.651,10.181,13.769,10.181,27.758c0,20.051-0.201,36.218-0.201,41.163c0,3.992,2.728,8.661,10.326,7.196
		C257.062,272.461,300,216.248,300,150C300,67.163,232.837,0,150,0z"/>
</g>
</svg>
