<?xml version="1.0" encoding="utf-8"?>
<!DOCTYPE svg PUBLIC "-//W3C//DTD SVG 1.1//EN" "http://www.w3.org/Graphics/SVG/1.1/DTD/svg11.dtd">
<svg class="svg" version="1.1" id="Layer_1" xmlns="http://www.w3.org/2000/svg" xmlns:xlink="http://www.w3.org/1999/xlink" x="0px" y="0px"
	 width="128px" height="128px" viewBox="0 0 128 128" enable-background="new 0 0 128 128" xml:space="preserve">
<g>
	<path d="M64,6.493C32.24,6.493,6.493,32.239,6.493,64c0,31.76,25.747,57.508,57.507,57.508c31.76,0,57.508-25.748,57.508-57.508
		C121.508,32.239,95.76,6.493,64,6.493z M24.025,77.434C25,73.834,33.074,45,33.074,45h8.28L30.753,83c0,0-1.92,0-4.086,0
		C24.75,81.25,24.167,79.25,24.025,77.434z M43.738,83L37.81,61.637l4.14-15.547L52.018,83H43.738z M48.537,66.772L54.34,45h8.28
		L52.583,82.188L48.537,66.772z M65.004,83l-5.928-21.363l4.14-15.547L73.283,83H65.004z M70.147,66.537L75.982,45h8.279
		L74.225,82.188L70.147,66.537z M99.191,69H79.213l2.195-7.763l11.603-0.059L95.169,53H83.416l2.195-7.792
		c0,0,15.883-0.026,17.073-0.026c0.878,0.631,1.753,2.943,1.662,4.415C103.083,54.307,99.191,69,99.191,69z"/>
	<path d="M64,0C28.654,0,0,28.653,0,64s28.654,64,64,64c35.347,0,64-28.653,64-64S99.347,0,64,0z M63.702,125.916
		c-34.007,0-61.576-27.568-61.576-61.576c0-34.007,27.568-61.576,61.576-61.576c34.008,0,61.575,27.569,61.575,61.576
		C125.277,98.348,97.71,125.916,63.702,125.916z"/>
</g>
</svg>
