<svg class="svg" xmlns="http://www.w3.org/2000/svg" xmlns:xlink="http://www.w3.org/1999/xlink" style="isolation:isolate" width="256" height="53" xml:space="preserve" viewBox="0 0 256 53">
	<path d="M 248.59428571428572 37.69618845294465 C 244.48000000000002 37.696188452942195 241.18857142857144 40.927290320337235 241.18857142857144 44.78666199528425 C 241.18857142857144 48.73578649987596 244.48000000000002 51.87713553762128 248.59428571428572 51.87713553762396 C 252.70857142857142 51.87713553762128 256 48.64603367022601 256 44.78666199528424 C 256 40.927290320337235 252.70857142857147 37.696188452942195 248.59428571428572 37.69618845294465 Z M 208.00000000000003 41.73506578718876 L 208.00000000000003 0 L 203.52 0 C 203.52 -2.5650592760939617e-12 196.11428571428573 2.602832059843636 190.72000000000003 3.231101867395268 L 190.72000000000003 11.129350876583716 L 194.10285714285715 11.129350876583716 C 195.20000000000002 11.129350876581038 195.65714285714287 11.578115024830428 195.65714285714287 12.565396150981508 L 195.65714285714287 41.73506578718876 C 195.65714285714287 42.722346913334704 195.0171428571429 43.35061672088377 194.01142857142858 43.350616720886336 C 193.18857142857146 43.4403695505336 191.26857142857145 43.53012238018355 191.26857142857145 43.53012238018612 L 191.26857142857145 51.42837138937456 L 212.38857142857145 51.42837138937456 L 212.38857142857145 43.53012238018612 C 212.38857142857145 43.53012238018355 210.46857142857147 43.440369550533596 209.64571428571435 43.350616720886336 C 208.64000000000001 43.350616720883764 208.00000000000003 42.81209974298466 208.00000000000003 41.73506578718876 Z M 250.6057142857143 21.002162138069185 C 250.1485714285715 12.206384832379491 238.07999999999998 11.7576206841301 231.68000000000004 17.771060270673917 L 230.4914285714286 14.360452743978868 L 215.86285714285717 14.360452743978868 L 215.86285714285717 22.438207412467097 L 218.9714285714286 22.438207412467094 C 220.06857142857143 22.43820741246442 220.43428571428572 22.88697156071381 220.43428571428572 23.874252686864892 L 220.43428571428572 41.73506578718876 C 220.43428571428572 42.722346913334704 219.79428571428576 43.350616720883764 218.78857142857143 43.350616720886336 C 217.96571428571434 43.4403695505336 216.22857142857146 43.53012238018355 216.22857142857146 43.53012238018612 L 216.22857142857148 51.42837138937456 L 236.8914285714286 51.42837138937456 L 236.8914285714286 43.53012238018612 C 236.89142857142863 43.53012238018355 235.15428571428572 43.4403695505336 234.3314285714286 43.350616720886336 C 233.3257142857143 43.26086389123393 232.6857142857143 42.722346913334704 232.6857142857143 41.73506578718876 L 232.6857142857143 29.61843378445653 C 232.6857142857143 27.37461304320721 233.23428571428573 23.515241368262878 237.25714285714287 22.617713071766765 C 237.80571428571437 26.387331917058695 241.46285714285722 27.554118702506884 243.29142857142858 27.554118702509562 C 248.04571428571433 27.554118702506884 250.60571428571436 24.14351117581194 250.6057142857143 21.002162138069185 Z M 172.8 13.911688595729585 C 169.6914285714286 14.001441425376855 166.4 15.257981040474982 163.9314285714286 17.23254329277469 L 163.93142857142857 0 L 159.54285714285714 0 C 159.54285714285714 -2.5650592760939617e-12 152.32 2.5130792301936933 146.65142857142857 3.231101867395268 L 146.46857142857144 11.129350876583713 L 150.03428571428572 11.129350876583713 C 151.13142857142861 11.129350876581034 151.58857142857147 11.578115024830428 151.58857142857144 12.565396150981512 L 151.58857142857144 51.51812421902439 L 161.73714285714286 51.518124219024386 L 163.2 48.287022351629126 C 163.47428571428574 48.466528010926346 168.13714285714286 52.77466383411996 175.54285714285714 51.87713553762396 C 184.86857142857144 50.80010158182293 189.80571428571432 43.53012238018355 189.80571428571432 32.49052433325224 C 189.80571428571432 26.74634323565815 187.97714285714287 13.193665958528008 172.8 13.911688595729585 Z M 170.88000000000002 42.90185257263694 C 169.14285714285717 42.99160540228421 165.94285714285715 42.722346913334704 163.93142857142857 39.22198655699239 L 163.93142857142857 34.0163224373001 L 163.9314285714286 28.00288285075884 C 163.9314285714286 25.400050790910072 166.4 23.156230049663428 170.14857142857144 22.976724390366215 C 173.98857142857148 22.797218731063868 177.3714285714286 25.400050790910072 177.37142857142857 32.580277162902185 C 177.3714285714286 42.363335594735254 172.98285714285714 42.722346913334704 170.88000000000002 42.90185257263694 Z M 143.63428571428574 41.82481861683859 L 143.63428571428574 30.605714910605045 C 143.63428571428574 26.566837576358367 143.54285714285714 22.438207412464422 140.89142857142855 19.027599885772045 C 138.42285714285717 15.886250848024046 134.30857142857144 13.642430106777404 128.09142857142857 13.911688595729585 C 123.97714285714287 14.091194255026688 119.49714285714288 15.976003677673994 117.12 19.20710554507183 L 116.75428571428574 19.655869693321108 L 116.48000000000002 19.386611204371498 C 114.01142857142858 15.796498018374212 109.98857142857145 13.552677277127462 103.68 13.821935766079749 C 99.56571428571431 14.001441425376852 95.08571428571429 15.886250848024048 92.70857142857145 19.11735271542188 L 92.34285714285716 14.270699914329036 L 76.98285714285714 14.270699914329036 L 76.98285714285714 22.34845458281715 L 80.54857142857144 22.438207412467094 C 81.64571428571429 22.438207412464422 82.10285714285715 22.88697156071381 82.10285714285715 23.874252686864896 L 82.10285714285715 41.73506578718876 C 82.10285714285715 42.722346913334704 81.46285714285715 43.350616720883764 80.45714285714287 43.350616720886336 C 79.63428571428571 43.4403695505336 77.89714285714287 43.530122380183556 77.89714285714285 43.530122380186114 L 77.89714285714285 51.42837138937456 L 98.56 51.42837138937456 L 98.56 43.530122380186114 C 98.56 43.53012238018355 96.91428571428573 43.4403695505336 96.00000000000001 43.350616720886336 C 94.99428571428572 43.26086389123393 94.35428571428571 42.722346913334704 94.35428571428571 41.73506578718876 L 94.35428571428571 29.618433784456528 C 94.35428571428571 27.643871532156822 96.09142857142858 23.425488538613155 101.4857142857143 23.42548853861561 C 105.87428571428572 23.425488538613155 106.69714285714285 26.028320598459135 106.69714285714285 29.0799168065573 L 106.69714285714285 41.73506578718876 C 106.69714285714285 42.722346913334704 106.05714285714286 43.350616720883764 105.05142857142859 43.350616720886336 C 104.22857142857144 43.4403695505336 102.49142857142857 43.53012238018355 102.49142857142857 43.530122380186114 L 102.49142857142857 51.42837138937456 L 123.15428571428572 51.42837138937456 L 123.15428571428572 43.53012238018612 C 123.15428571428572 43.53012238018355 121.50857142857144 43.4403695505336 120.59428571428572 43.350616720886336 C 119.58857142857147 43.26086389123394 118.94857142857144 42.722346913334704 118.94857142857144 41.73506578718876 L 118.94857142857144 29.618433784456528 C 118.94857142857144 27.643871532156822 120.50285714285718 23.425488538613155 125.89714285714285 23.42548853861561 C 130.28571428571428 23.425488538613152 131.29142857142858 26.028320598459135 131.29142857142858 29.079916806557303 L 131.29142857142858 41.73506578718876 C 131.29142857142858 42.722346913334704 130.6514285714286 43.350616720883764 129.6457142857143 43.350616720886336 C 128.82285714285717 43.4403695505336 127.08571428571427 43.53012238018355 127.08571428571427 43.530122380186114 L 127.08571428571427 51.42837138937456 L 147.74857142857144 51.42837138937456 L 147.74857142857144 43.53012238018612 C 147.74857142857144 43.53012238018355 146.10285714285718 43.4403695505336 145.18857142857144 43.350616720886336 C 144.27428571428575 43.35061672088377 143.63428571428574 42.81209974298466 143.63428571428574 41.82481861683859 Z M 70.30857142857144 41.82481861683859 L 70.30857142857144 14.360452743978868 L 53.02857142857143 14.360452743978868 L 53.02857142857143 22.438207412467094 L 56.32 22.438207412467094 C 57.417142857142856 22.438207412464422 57.87428571428571 22.88697156071381 57.874285714285726 23.8742526868649 L 57.874285714285726 36.43964883784652 C 57.87428571428571 37.69618845294219 56.96 42.27358276508542 50.74285714285715 42.36333559473782 C 46.44571428571428 42.4530884243852 45.53142857142857 39.940009194188725 45.53142857142857 36.70890732679613 L 45.53142857142857 14.360452743978868 L 32.91428571428571 14.360452743978868 L 32.91428571428571 37.33717713434519 C 32.91428571428572 43.1711110615841 35.65714285714286 52.32589968587067 48.27428571428572 51.96688836727379 C 52.38857142857143 51.87713553762128 57.142857142857146 49.8128204556743 59.611428571428576 46.76122424758139 L 59.702857142857155 51.42837138937456 L 73.78285714285715 51.42837138937456 L 73.78285714285715 43.530122380186114 C 73.78285714285715 43.53012238018355 72.6857142857143 43.440369550533596 71.77142857142857 43.350616720886336 C 70.85714285714286 43.4403695505336 70.30857142857144 42.90185257263437 70.30857142857144 41.82481861683859 Z M 23.40571428571429 42.81209974298711 C 19.200000000000003 42.901852572634375 18.37714285714286 39.94000919418872 18.377142857142857 37.87569411224443 L 18.377142857142857 22.97672439036621 L 28.16 22.97672439036621 L 28.16 14.360452743978868 L 18.377142857142857 14.360452743978868 L 18.37714285714287 1.6155509336976874 L 10.697142857142865 1.6155509336976916 C 10.6057142857143 1.6155509336950136 10.331428571428575 1.7053037633449557 10.331428571428575 1.9745622522971378 C 9.874285714285726 5.923686756888627 7.954285714285814 12.834654639928115 0 15.527239529427167 L 0 22.88697156071638 L 6.034285714285715 22.88697156071638 L 6.034285714285715 38.503963919793485 C 6.034285714285715 44.15839218773261 9.600000000000001 52.1463940265709 21.02857142857143 51.96688836727379 C 24.868571428571425 51.877135537621285 29.165714285714287 50.35133743357353 30.080000000000002 49.00504498882813 L 27.520000000000003 41.82481861683859 C 26.697142857142865 42.36333559473526 24.777142857142863 42.72234691333471 23.40571428571429 42.81209974298711 Z" style="stroke-miterlimit:10;"/>
</svg>