<svg class="svg" version="1.1" xmlns="http://www.w3.org/2000/svg" xmlns:xlink="http://www.w3.org/1999/xlink" x="0px" y="0px"
	 width="128px" height="104px" viewBox="0 0 128 104" enable-background="new 0 0 128 104" xml:space="preserve">
<path d="M 112.91707816672154 16.44542303918751 C 118.33925161856686 13.196201244049249 122.50291524927758 8.050827714717052 124.46371849738277 1.9199121425178847 C 119.38988258531766 4.928693209950612 113.7696623870661 7.113752036657043 107.78799517173269 8.291287166148367 C 102.99741760854457 3.1884258567473722 96.17253008522624 1.8705037518884637e-12 88.6195983759474 0 C 74.11630271772925 1.8820500713445654e-12 62.3580379677384 11.755363717381478 62.3580379677403 26.25436181800377 C 62.3580379677384 28.312333354338893 62.59073118987527 30.31586565726718 63.038326200664756 32.237622086798865 C 41.213106551080884 31.142845826320787 21.863003035955956 20.690278965515652 8.910792640551847 4.805725139302995 C 6.650297377372984 8.683502416982693 5.355455576282965 13.19343949446105 5.3554555762820115 18.005109416774772 C 5.355455576282965 27.113734033073982 9.99166904422254 35.149957241492324 17.037919455723934 39.858319005483814 C 12.733188485314022 39.72210389867696 8.684045502761622 38.54087083329699 5.143316141773194 36.57436469857548 C 5.141443359303559 36.68403892374703 5.141021983247376 36.79375995823292 5.141021983249285 36.90437036970404 C 5.141021983247376 49.625363447327 14.193116061304364 60.23703516999966 26.20659424265548 62.64865108156596 C 24.00279746881744 63.248746500554354 21.682841362156623 63.5693903086722 19.28792713705905 63.569390308670265 C 17.59572771498592 63.56939030867219 15.950675591645632 63.405089612833684 14.347199239180593 63.09848859923103 C 17.68903910164966 73.5294763657973 27.38714949339771 81.1200748949045 38.87854274113941 81.33212109209872 C 29.890919199678116 88.37364635562506 18.567795457039395 92.57103763648993 6.264410549033091 92.57103763649083 C 4.144720436007169 92.57103763648992 2.054301913018033 92.44699295159768 0 92.20452069961848 C 11.621692088225648 99.65375509726444 25.425222575807474 103.99999999999999 40.255225136250324 104 C 88.55826474999085 104 114.97198873404295 63.993482703058646 114.97198873404389 29.298792859782523 C 114.97198873404295 28.160577554934843 114.94670617067193 27.028260223785928 114.89614104392801 25.90235576879711 C 120.02662862577272 22.200581515723087 124.47916895277808 17.57633609088363 128 12.311224333642336 C 123.2904202787227 14.39934106887435 118.22922564834118 15.81092277363354 112.91707816672154 16.44542303918751 Z" style="stroke:none;stroke-miterlimit:10;"/></svg>